<svg width="50" height="33" viewBox="0 0 50 33" fill="none" xmlns="http://www.w3.org/2000/svg">
<path d="M0.603053 19.8742C0.603053 19.5031 0.723664 19.1825 0.964885 18.9126C1.20611 18.6426 1.44733 18.4064 1.68855 18.204C1.95657 18.0015 2.37201 17.681 2.93486 17.2423C3.52451 16.8037 4.16777 16.3144 4.86463 15.7745C5.58829 15.2009 6.35216 14.6104 7.15623 14.0031C7.9603 13.362 8.71077 12.7715 9.40763 12.2316C10.1313 11.658 10.7746 11.1518 11.3374 10.7132C11.9271 10.2745 12.3559 9.93712 12.6239 9.70092C12.9455 9.43098 13.227 9.19479 13.4682 8.99233C13.7094 8.78988 13.9506 8.63804 14.1919 8.53681C14.4331 8.40184 14.6877 8.30061 14.9557 8.23313C15.2505 8.16564 15.6124 8.1319 16.0412 8.1319C16.0412 8.97546 15.867 9.65031 15.5186 10.1564C15.1701 10.6626 14.7279 11.1687 14.1919 11.6748C13.8702 11.9448 13.2806 12.4341 12.4229 13.1426C11.592 13.8175 10.7075 14.5429 9.76946 15.319C8.83138 16.0614 7.9469 16.7868 7.11603 17.4954C6.28516 18.1702 5.6955 18.6258 5.34707 18.862C4.97184 19.1319 4.78422 19.4862 4.78422 19.9248V20.0767C4.78422 20.1104 4.79762 20.1442 4.82443 20.1779L14.7145 22.1518C14.7145 22.2193 14.7279 22.2868 14.7547 22.3543C14.7547 22.4218 14.7547 22.4893 14.7547 22.5567C14.7815 22.5905 14.7949 22.6242 14.7949 22.658C14.7949 23.6028 14.4197 24.3114 13.6692 24.7837C13.5888 24.7837 13.4146 24.7837 13.1466 24.7837C12.9053 24.7837 12.6373 24.8006 12.3425 24.8344C12.0745 24.8344 11.8198 24.8344 11.5786 24.8344C11.3374 24.8344 11.1632 24.8344 11.056 24.8344C10.7075 24.8344 10.1983 24.8175 9.52824 24.7837C8.88499 24.7163 8.17472 24.615 7.39745 24.4801C6.62019 24.3114 5.82952 24.1089 5.02544 23.8727C4.22137 23.6365 3.48431 23.3328 2.81425 22.9617C2.17099 22.5905 1.63494 22.1518 1.20611 21.6457C0.804071 21.1396 0.603053 20.5491 0.603053 19.8742Z" fill="#F0B666"/>
<path d="M16.8722 31.2791C16.8722 30.773 16.9124 30.3512 16.9929 30.0138C17.1001 29.6426 17.4217 29.3221 17.9577 29.0521C18.1722 28.5798 18.5072 27.8543 18.9628 26.8758C19.4185 25.8635 19.9277 24.7331 20.4906 23.4847C21.0802 22.2362 21.6967 20.9202 22.3399 19.5368C22.9832 18.1534 23.5996 16.8374 24.1893 15.589C24.7789 14.3405 25.3016 13.227 25.7572 12.2485C26.2397 11.2362 26.6015 10.4939 26.8427 10.0215C27.1107 9.44785 27.486 8.72239 27.9684 7.84509C28.4509 6.93405 28.9735 6.02301 29.5364 5.11196C30.0992 4.16718 30.6889 3.25614 31.3053 2.37883C31.9218 1.50153 32.5114 0.776074 33.0743 0.202454C33.1279 0.168712 33.2351 0.134969 33.3959 0.101227C33.5567 0.0337423 33.6639 0 33.7175 0C33.7175 0.506135 33.5299 1.24847 33.1547 2.22699C32.8063 3.20552 32.3506 4.30215 31.7878 5.51687C31.2249 6.69785 30.5951 7.94632 29.8982 9.26227C29.2013 10.5782 28.5179 11.8604 27.8478 13.1089C27.1778 14.3574 26.5613 15.5215 25.9985 16.6012C25.4624 17.681 25.047 18.5583 24.7521 19.2331C24.4305 19.9417 24.0285 20.9034 23.546 22.1181C23.0904 23.2991 22.5811 24.5307 22.0183 25.8129C21.4554 27.0613 20.8658 28.2929 20.2493 29.5077C19.6597 30.6887 19.07 31.6334 18.4804 32.342C18.4 32.4433 18.2258 32.5782 17.9577 32.7469C17.6897 32.9156 17.5289 33 17.4753 33C17.3145 33 17.1805 32.9325 17.0733 32.7975C16.9929 32.6288 16.9392 32.4601 16.9124 32.2914C16.8856 32.089 16.8722 31.9034 16.8722 31.7347C16.8722 31.5322 16.8722 31.3804 16.8722 31.2791Z" fill="#0D3482"/>
<path d="M33.7979 25.7623C33.9856 25.1212 34.3206 24.5138 34.803 23.9402C35.3123 23.3666 35.9019 22.8267 36.572 22.3206C37.2688 21.8144 38.0193 21.3589 38.8234 20.954C39.6275 20.5491 40.4181 20.1948 41.1954 19.8911C41.9727 19.5537 42.7097 19.2837 43.4066 19.0813C44.1303 18.8451 44.7333 18.6764 45.2158 18.5752C45.2158 18.5414 45.2158 18.4908 45.2158 18.4233C45.2426 18.3221 45.256 18.2546 45.256 18.2209C45.256 17.7822 45.0549 17.4279 44.6529 17.158C44.2509 16.888 43.9292 16.7025 43.688 16.6012C43.3396 16.4325 42.7231 16.1626 41.8387 15.7914C40.9542 15.4202 40.0027 15.0322 38.9842 14.6273C37.9925 14.1887 37.0544 13.7837 36.17 13.4126C35.2855 13.0414 34.669 12.7883 34.3206 12.6534C33.8917 11.9785 33.6907 11.4049 33.7175 10.9325C33.7711 10.4264 33.9588 10.0383 34.2804 9.7684C34.602 9.49847 35.004 9.32975 35.4865 9.26227C35.9957 9.19479 36.4916 9.22853 36.974 9.3635C37.4833 9.46472 37.9255 9.68405 38.3007 10.0215C38.676 10.3589 38.9172 10.7975 39.0244 11.3374L48.3516 15.8926C49.4505 16.4663 50 17.3436 50 18.5245C50 19.0644 49.8526 19.4693 49.5577 19.7393C49.2897 20.0092 48.9547 20.1948 48.5526 20.296C48.1506 20.3972 47.7352 20.4647 47.3063 20.4985C46.9043 20.4985 46.5693 20.4985 46.3012 20.4985L35.3659 26.4202C35.3123 26.4202 35.2587 26.4371 35.2051 26.4709C35.1783 26.4709 35.1381 26.4709 35.0845 26.4709C34.8432 26.4709 34.6154 26.4202 34.401 26.319C34.2134 26.184 34.0124 25.9985 33.7979 25.7623Z" fill="#F0B666"/>
</svg>
